<svg xmlns:xlink="http://www.w3.org/1999/xlink" xmlns="http://www.w3.org/2000/svg" width="343.62689894697746" height="79.76532391037449" viewBox="0 0 343.62689894697746 79.76532391037449" class="css-1j8o68f"><defs id="SvgjsDefs2466"></defs><g id="SvgjsG2467" featurekey="Ez5wPW-0" transform="matrix(0.11564001942328686,0,0,0.11564001942328686,-2.038271139397727,2.5931845280704433)" fill="#3D84A8"><g xmlns="http://www.w3.org/2000/svg" fill="#3D84A8"><path d="M555.513,413.395L326.284,188.378c-8.407-8.253-20.94-10.671-31.814-6.137c-10.875,4.535-17.977,15.138-18.031,26.92   l-1.448,314.647c-0.054,11.813,6.988,22.505,17.864,27.119c3.693,1.565,7.583,2.327,11.44,2.327c7.505,0,14.89-2.881,20.476-8.33   l61.118-59.62l67.756,163.921c4.671,11.299,15.59,18.123,27.101,18.123c3.73,0,7.523-0.717,11.186-2.23   c14.961-6.186,22.074-23.326,15.892-38.286l-67.158-162.474l95.124,0.086c0.011,0,0.018,0,0.027,0c0.012,0,0.025-0.001,0.033,0   c16.19,0,29.312-13.123,29.312-29.312C565.161,426.513,561.438,418.758,555.513,413.395z" fill="#3D84A8"></path><path d="M400.158,50.25c6.247,0.384,12.329,1.779,18.079,4.147c1.827,0.752,3.718,1.109,5.579,1.109   c5.765,0,11.234-3.423,13.564-9.086c3.083-7.489-0.489-16.06-7.977-19.143c-8.739-3.598-17.975-5.718-27.447-6.3   c-8.072-0.517-15.04,5.653-15.536,13.737C385.924,42.797,392.074,49.753,400.158,50.25z" fill="#3D84A8"></path><path d="M307.213,50.142h23.462c8.1,0,14.664-6.566,14.664-14.665c0-8.099-6.564-14.664-14.664-14.664h-23.462   c-8.099,0-14.664,6.565-14.664,14.664C292.549,43.576,299.114,50.142,307.213,50.142z" fill="#3D84A8"></path><path d="M32.29,181.294c8.099,0,14.665-6.565,14.665-14.665v-23.462c0-8.099-6.565-14.665-14.665-14.665   c-8.099,0-14.664,6.565-14.664,14.665v23.462C17.626,174.729,24.191,181.294,32.29,181.294z" fill="#3D84A8"></path><path d="M468.162,265.941c-8.099,0-14.664,6.565-14.664,14.665v23.462c0,8.099,6.565,14.664,14.664,14.664   c8.1,0,14.664-6.565,14.664-14.664v-23.462C482.826,272.506,476.262,265.941,468.162,265.941z" fill="#3D84A8"></path><path d="M32.29,275.145c8.099,0,14.665-6.565,14.665-14.665v-23.462c0-8.099-6.565-14.665-14.665-14.665   c-8.099,0-14.664,6.565-14.664,14.665v23.462C17.626,268.58,24.191,275.145,32.29,275.145z" fill="#3D84A8"></path><path d="M453.498,107.039v9.328c0,8.099,6.565,14.664,14.664,14.664c8.1,0,14.664-6.565,14.664-14.664v-9.328   c0-5.682-0.557-11.368-1.657-16.897c-1.578-7.942-9.292-13.1-17.241-11.524c-7.944,1.58-13.104,9.299-11.524,17.242   C453.129,99.511,453.498,103.272,453.498,107.039z" fill="#3D84A8"></path><path d="M482.826,186.755c0-8.099-6.564-14.664-14.664-14.664c-8.099,0-14.664,6.565-14.664,14.664v23.462   c0,8.099,6.565,14.664,14.664,14.664c8.1,0,14.664-6.565,14.664-14.664V186.755z" fill="#3D84A8"></path><path d="M32.29,368.996c8.099,0,14.665-6.565,14.665-14.665v-23.462c0-8.099-6.565-14.664-14.665-14.664   c-8.099,0-14.664,6.565-14.664,14.664v23.462C17.626,362.43,24.191,368.996,32.29,368.996z" fill="#3D84A8"></path><path d="M227.495,456.684h-23.463c-8.099,0-14.664,6.565-14.664,14.665c0,8.098,6.565,14.664,14.664,14.664h23.463   c8.099,0,14.664-6.566,14.664-14.664C242.159,463.25,235.594,456.684,227.495,456.684z" fill="#3D84A8"></path><path d="M142.975,20.813h-23.463c-8.099,0-14.665,6.565-14.665,14.664c0,8.099,6.566,14.665,14.665,14.665h23.463   c8.099,0,14.664-6.566,14.664-14.665C157.639,27.378,151.074,20.813,142.975,20.813z" fill="#3D84A8"></path><path d="M236.825,20.813h-23.463c-8.099,0-14.664,6.565-14.664,14.664c0,8.099,6.565,14.665,14.664,14.665h23.463   c8.099,0,14.665-6.566,14.665-14.665C251.49,27.378,244.924,20.813,236.825,20.813z" fill="#3D84A8"></path><path d="M44.168,44.806c-6.834,6.556-12.509,14.129-16.864,22.509c-3.735,7.186-0.938,16.039,6.248,19.775   c2.162,1.123,4.472,1.656,6.75,1.656c5.297,0,10.413-2.88,13.024-7.904c2.875-5.532,6.625-10.536,11.144-14.872   c5.845-5.606,6.037-14.889,0.431-20.733C59.295,39.391,50.011,39.198,44.168,44.806z" fill="#3D84A8"></path><path d="M133.644,456.684h-23.463c-8.099,0-14.664,6.565-14.664,14.665c0,8.098,6.565,14.664,14.664,14.664h23.463   c8.1,0,14.665-6.566,14.665-14.664C148.308,463.25,141.743,456.684,133.644,456.684z" fill="#3D84A8"></path><path d="M50.352,419.209c-2.762-7.614-11.178-11.536-18.787-8.782c-7.613,2.763-11.545,11.175-8.782,18.787   c3.223,8.881,7.869,17.135,13.808,24.529c2.897,3.608,7.15,5.483,11.443,5.483c3.221,0,6.465-1.057,9.172-3.231   c6.315-5.07,7.323-14.301,2.252-20.614C55.539,430.5,52.475,425.059,50.352,419.209z" fill="#3D84A8"></path></g></g><g id="SvgjsG2468" featurekey="nameLeftFeature-0" transform="matrix(1.8357566221086907,0,0,1.8357566221086907,80.51076904711051,18.394402608855)" fill="#3D84A8"><path d="M3.3558 6.441000000000001 l-1.6778 0 c-0.18644 0 -0.32203 0.15254 -0.32203 0.32203 l0 12.898 c0 0.18644 0.15254 0.33881 0.33898 0.33881 l1.678 0 c0.16933 0 0.32186 -0.16933 0.32186 -0.33881 l0 -12.898 c0 -0.16949 -0.16949 -0.32203 -0.33898 -0.32203 z M21.508847457627116 6.441000000000001 c0.18644 0 0.33915 0.15238 0.33915 0.32186 l0 12.898 c0 0.16949 -0.13559 0.33881 -0.3222 0.33881 l-1.7456 0 c-0.20339 0 -0.33898 -0.15238 -0.33898 -0.33881 l0 -8.2203 l-4.9492 7.8305 c-0.10186 0.16949 -0.20356 0.23729 -0.3561 0.23729 l-0.10169 0 c-0.15254 0 -0.25424 -0.067797 -0.35593 -0.23729 l-4.9322 -7.8475 l0 8.2375 c0 0.16949 -0.15254 0.33881 -0.33898 0.33881 l-1.7458 0 c-0.18644 0 -0.33898 -0.15238 -0.33898 -0.33881 l0 -12.898 c0 -0.16949 0.13559 -0.32203 0.33898 -0.32203 l1.4576 0 c0.16949 0 0.28814 0.067797 0.38983 0.22034 l5.5763 8.8134 l5.5932 -8.8134 c0.084746 -0.15254 0.20339 -0.22034 0.38983 -0.22034 l1.4407 0 z M37.287644067796606 19.62712 c0.10169 0.20339 0.034229 0.37271 -0.20305 0.37271 l-1.9831 0 c-0.16949 0 -0.27119 -0.08458 -0.33898 -0.22017 l-0.91525 -1.9322 l-6.5256 0 l-0.91525 1.9322 c-0.067797 0.13559 -0.18644 0.22017 -0.33898 0.22017 l-2 0 c-0.20339 0 -0.32203 -0.16933 -0.22034 -0.37271 l6.3898 -13.102 c0.067797 -0.11881 0.15238 -0.16966 0.23712 -0.16966 l0.20339 0 c0.10169 0 0.16949 0.050847 0.23729 0.16966 z M28.35614406779661 15.6441 l4.4576 0 l-2.2203 -4.7288 z M49.74615254237288 13.813600000000001 l0 3.8475 c0 0.08458 -0.033898 0.18627 -0.11864 0.25407 c-1.2542 1.3729 -3.0339 2.2032 -5.0678 2.2032 c-3.7288 0 -6.8475 -2.9998 -6.8475 -6.8642 c0 -3.8475 3.1186 -6.9322 6.8475 -6.9322 c2.0508 0 3.8475 0.84746 5.1186 2.2373 c0.15254 0.15254 0.13559 0.32203 -0.016949 0.45763 l-1.4068 1.1356 c-0.16966 0.13559 -0.32203 0.11864 -0.45763 -0.033898 c-0.72881 -0.76271 -1.8644 -1.4575 -3.2203 -1.4575 c-2.4915 0 -4.4405 2.1524 -4.4405 4.5931 c0 2.4746 1.949 4.5254 4.4405 4.5254 c1.1017 0 2.0508 -0.45763 2.7627 -1.0339 l0 -0.9661 l-2.678 0 c-0.22034 0 -0.33898 -0.10169 -0.33898 -0.32186 l0 -1.6271 c0 -0.22034 0.084746 -0.35593 0.30508 -0.35593 l4.7797 0 c0.22034 0 0.33898 0.11881 0.33898 0.33898 z M60.4237220338983 8.78 l-6.1697 -0.00033103 l0 3.4068 l3.322 0 c0.18644 0 0.33898 0.15254 0.33898 0.33915 l0 1.6778 c0 0.20339 -0.13559 0.3222 -0.33898 0.3222 l-3.322 0 l0 3.1356 l6.1695 0 c0.18644 0 0.33881 0.15238 0.33881 0.33881 l0 1.6613 c0 0.18644 -0.15238 0.33881 -0.33881 0.33881 l-8.2542 0 c-0.18644 0 -0.33898 -0.15238 -0.33898 -0.33881 l0 -12.898 c0 -0.16949 0.13559 -0.32203 0.3222 -0.32203 l8.2712 0 c0.18644 0 0.33881 0.15254 0.33881 0.32203 l0 1.6949 c0 0.18644 -0.15238 0.32203 -0.33881 0.32203 z" fill="#3D84A8"></path></g><g id="SvgjsG2469" featurekey="nameRightFeature-0" transform="matrix(1.856222245004493,0,0,1.856222245004493,198.6408671616977,18.201311589282824)" fill="#3D84A8"><path d="M16.644 6.441000000000001 c0.11864 0 0.20339 0.10186 0.20339 0.23746 l0 13.085 c0 0.15254 -0.084746 0.23712 -0.22034 0.23712 l-0.88136 0 c-0.16949 0 -0.23729 -0.08458 -0.23729 -0.23712 l0 -10.61 l-6.1697 10.407 c-0.067797 0.11864 -0.13559 0.16949 -0.25424 0.16949 l-0.067797 0 c-0.10169 0 -0.18644 -0.050847 -0.25424 -0.16949 l-6.1525 -10.407 l0 10.61 c0 0.15254 -0.084746 0.23712 -0.22034 0.23712 l-0.88136 0 c-0.15254 0 -0.23729 -0.08458 -0.23729 -0.23712 l0 -13.102 c0 -0.11881 0.067797 -0.22051 0.20339 -0.22051 l0.81356 0 c0.11864 0 0.18644 0.050847 0.25424 0.15271 l6.5086 10.983 l6.5254 -10.983 c0.050847 -0.10186 0.11864 -0.15271 0.27119 -0.15271 l0.79661 0 z M32.18664406779661 19.77983 c0.067797 0.13559 0.034229 0.22017 -0.11831 0.22017 l-1.0339 0 c-0.11864 0 -0.18644 -0.050847 -0.23729 -0.15254 l-1.1864 -2.5254 l-8.1864 0 l-1.1864 2.5254 c-0.050847 0.10169 -0.11848 0.15254 -0.22034 0.15254 l-1.0678 0 c-0.11864 0 -0.18644 -0.08458 -0.11864 -0.22017 l6.3558 -13.271 c0.067797 -0.11864 0.11864 -0.15254 0.20322 -0.15254 l0.23745 0 c0.084746 0 0.15254 0.033898 0.20339 0.15254 z M22.000144067796608 16.1019 l7.0339 0 l-3.5254 -7.4576 z M39.288101694915255 6.441000000000001 c3.0846 0 4.6437 2.4407 4.6437 4.4576 c0 2.0847 -1.5593 4.4746 -4.6439 4.4746 l-3.7966 0 l0 4.3898 c0 0.15254 -0.067797 0.23712 -0.20339 0.23712 l-0.91525 0 c-0.15238 0 -0.22017 -0.08458 -0.22017 -0.23712 l0 -13.102 c0 -0.15254 0.067797 -0.22034 0.22017 -0.22034 l4.9154 0 z M39.23710169491525 14.1019 c2.1864 0 3.3559 -1.6102 3.3559 -3.2034 s-1.1695 -3.1695 -3.3559 -3.1695 l-3.7456 0 l0 6.3729 l3.7456 0 z M50.7626779661017 6.441000000000001 c3.0846 0 4.6437 2.4407 4.6437 4.4576 c0 2.0847 -1.5593 4.4746 -4.6439 4.4746 l-3.7966 0 l0 4.3898 c0 0.15254 -0.067797 0.23712 -0.20339 0.23712 l-0.91525 0 c-0.15238 0 -0.22017 -0.08458 -0.22017 -0.23712 l0 -13.102 c0 -0.15254 0.067797 -0.22034 0.22017 -0.22034 l4.9154 0 z M50.711677966101696 14.1019 c2.1864 0 3.3559 -1.6102 3.3559 -3.2034 s-1.1695 -3.1695 -3.3559 -3.1695 l-3.7456 0 l0 6.3729 l3.7456 0 z M65.88115423728814 7.728999999999999 l-7.3556 0.00049656 l0 4.9659 l4.5424 0 c0.15254 0 0.23729 0.067797 0.23729 0.23729 l0 0.81339 c0 0.15254 -0.084746 0.22034 -0.23729 0.22034 l-4.5424 0 l0 4.7458 l7.3559 0 c0.15254 0 0.23712 0.084746 0.23712 0.23712 l0 0.81356 c0 0.16949 -0.067797 0.23712 -0.23729 0.23712 l-8.4746 0 c-0.15254 0 -0.22034 -0.08458 -0.22034 -0.22017 l0 -13.119 c0 -0.15254 0.084746 -0.22034 0.22034 -0.22034 l8.4746 0 c0.15254 0 0.23712 0.084746 0.23712 0.22034 l0 0.84746 c0 0.13559 -0.067797 0.22034 -0.23729 0.22034 z M78.06733898305085 19.76288 c0.084746 0.13559 0.033732 0.23712 -0.11881 0.23712 l-0.88136 0 c-0.27119 0 -0.45763 -0.22017 -0.55932 -0.37271 l-3 -4.2542 l-0.050847 0 l-3.8814 0 l0 4.3898 c0 0.15254 -0.067797 0.23712 -0.23729 0.23712 l-0.88136 0 c-0.15254 0 -0.22034 -0.08458 -0.22034 -0.23712 l0 -13.102 c0 -0.15254 0.067797 -0.22034 0.22034 -0.22034 l5 0 c3.1695 0 4.6273 2.4576 4.6273 4.4746 c0 1.7288 -1.0508 3.7288 -3.2712 4.3051 z M69.57613898305085 7.728999999999999 l0.00016552 6.3727 l3.7797 0 c2.3051 0 3.4066 -1.6102 3.4066 -3.2203 c0 -1.5932 -1.1186 -3.1524 -3.4068 -3.1524 l-3.7797 0 z" fill="#3D84A8"></path></g></svg>